<svg width="321" height="43" viewBox="0 0 321 43" fill="none" xmlns="http://www.w3.org/2000/svg">
<g clip-path="url(#clip0_67_9)">
<path d="M37.947 15.1018H34.0212C34.0212 16.2319 33.8318 17.3169 33.4835 18.3278C32.6184 18.5774 31.7036 18.7126 30.7598 18.7126C25.7795 18.7126 21.6627 14.9923 21.0271 10.1709H20.8762H17.0756H16.9247C16.2891 14.9923 12.1723 18.7126 7.19201 18.7126C6.24666 18.7126 5.33342 18.5774 4.46672 18.3278C4.11683 17.3169 3.92904 16.2319 3.92904 15.1018H0C0 15.2627 0.001605 15.4221 0.008025 15.5815C0.08025 17.6871 0.62274 19.6704 1.53278 21.4332C1.53759 21.4348 1.54241 21.4364 1.54722 21.4396C1.73982 21.5266 1.93563 21.6087 2.13465 21.6875C2.16033 21.6988 2.18601 21.7085 2.21329 21.7197C2.39627 21.7906 2.58084 21.8566 2.76702 21.921C2.82319 21.9403 2.87937 21.9596 2.93555 21.9773C2.94678 21.9805 2.95802 21.9854 2.97086 21.9886C2.97086 21.9886 2.97086 21.9886 2.97246 21.9886C1.85378 24.809 1.72538 27.8387 2.4733 30.6333C2.889 32.1933 3.57594 33.6823 4.51486 35.0185C6.14073 35.1312 7.76659 34.9541 9.31061 34.5033C10.0393 34.2925 10.7487 34.0172 11.434 33.6888C12.0166 36.184 13.2701 38.4184 14.9987 40.1876C16.1254 41.3419 17.4528 42.2981 18.9246 43C20.3963 42.2965 21.7253 41.3419 22.8488 40.1876C24.579 38.4184 25.8325 36.184 26.4135 33.6888C27.0988 34.0172 27.8082 34.2925 28.5369 34.5033C30.0809 34.9541 31.7068 35.1312 33.3326 35.0185C34.2716 33.6823 34.9585 32.1933 35.3742 30.6333C36.1189 27.8483 35.9937 24.8283 34.8847 22.0159C34.8847 22.0159 34.8847 22.0159 34.8879 22.0159C34.9055 22.0095 34.9232 22.0047 34.9425 21.9982C35.0259 21.9709 35.111 21.9435 35.1944 21.9161C35.3694 21.8566 35.5411 21.7938 35.7129 21.7278C35.753 21.7117 35.7915 21.6956 35.8316 21.6795C36.0242 21.6022 36.2168 21.5217 36.4062 21.4364C36.4078 21.4364 36.411 21.4348 36.4126 21.4332C37.3243 19.6704 37.8652 17.6871 37.9374 15.5815C37.9438 15.4221 37.9454 15.2627 37.9454 15.1018H37.947ZM6.75705 31.0261C5.62071 28.4198 5.62071 25.3547 6.97854 22.647C7.03793 22.6502 7.09571 22.6502 7.15509 22.6502C7.16633 22.6502 7.17756 22.6502 7.1888 22.6502C7.27226 22.6502 7.35251 22.6502 7.43597 22.6486C8.81145 22.6229 10.1372 22.3959 11.3875 21.995C11.3875 21.995 11.3891 21.995 11.3907 21.995C11.7823 23.7868 12.5206 25.4465 13.5318 26.9018C11.9091 29.2344 9.42135 30.6768 6.75705 31.0261ZM15.0629 20.1663C16.6422 19.0571 17.976 17.626 18.9727 15.9646C19.9485 17.5938 21.2518 19.0024 22.7926 20.1003C22.4925 22.8804 21.0432 25.3161 18.9246 26.9114C16.8236 25.3274 15.3791 22.9191 15.0645 20.1663H15.0629ZM18.923 38.4168C16.7032 36.7426 15.2154 34.1476 15.0196 31.1968C15.4594 30.7718 15.8751 30.313 16.2619 29.8236C17.0788 30.4772 17.9712 31.039 18.9246 31.4946C19.8779 31.039 20.7687 30.4772 21.5856 29.8252C21.9725 30.3146 22.3865 30.7734 22.8279 31.1984C22.6337 34.1492 21.1443 36.7458 18.923 38.4184V38.4168ZM31.0905 31.0261C28.4262 30.6768 25.9384 29.2344 24.3158 26.9018C25.3333 25.4368 26.0748 23.7674 26.4632 21.9644H26.4664C27.7424 22.3846 29.0987 22.6245 30.5078 22.6486C30.5913 22.6502 30.6716 22.6502 30.755 22.6502C30.7646 22.6502 30.7743 22.6502 30.7839 22.6502C30.8128 22.6502 30.8401 22.6502 30.869 22.6502C32.2268 25.3563 32.2252 28.4214 31.0905 31.0261Z" fill="white"/>
<path d="M8.51132 8.53689H12.4275C15.0597 8.53689 17.4126 7.33758 18.9743 5.45569C20.5328 7.33758 22.8873 8.53689 25.5195 8.53689H29.4373C31.9668 8.53689 34.0196 10.5926 34.0196 13.1329H37.9486C37.9486 8.41777 34.1384 4.59766 29.4389 4.59766H25.5227C24.2564 4.59766 23.112 4.08251 22.2822 3.25184C21.4492 2.41796 20.9372 1.26854 20.9372 0H17.0082C17.0082 2.53708 14.957 4.59605 12.4259 4.59605H8.50971C6.15839 4.59605 4.03176 5.55067 2.49256 7.0961C0.951765 8.63992 0 10.7745 0 13.1313H3.92583C3.92583 10.5926 5.97702 8.53528 8.50971 8.53528L8.51132 8.53689Z" fill="white"/>
<path d="M73.0532 32.1417C71.9811 33.0722 70.5831 33.7837 68.8594 34.278C67.1356 34.7722 65.2738 35.0185 63.2756 35.0185C59.1908 35.0185 55.8444 33.6678 53.2379 30.965C50.6314 28.2621 49.3281 24.8347 49.3281 20.6782C49.3281 18.2087 49.8497 15.8326 50.893 13.5515C51.9362 11.2704 53.4787 9.41102 55.5202 7.97345C57.5618 6.53427 60.0752 5.81628 63.0589 5.81628C65.4343 5.81628 67.4406 6.13664 69.0777 6.77574C70.7131 7.41484 72.0678 8.21331 73.1399 9.17277L73.8782 14.9263L70.5751 15.2756L69.7935 11.2221C68.9525 10.6409 67.9975 10.1837 66.9253 9.84889C65.8532 9.51566 64.6077 9.34824 63.1889 9.34824C60.2919 9.34824 57.9598 10.3656 56.1927 12.3989C54.4256 14.4337 53.5429 17.1221 53.5429 20.4625C53.5429 23.8028 54.4609 26.6233 56.3019 28.5695C58.1412 30.5158 60.6113 31.4898 63.7105 31.4898C66.1148 31.4898 68.1002 31.068 69.6635 30.226L70.4018 26.0421L73.7049 26.3914L73.0532 32.1449V32.1417Z" fill="white"/>
<path d="M96.9099 24.8621C96.9099 27.8548 95.9903 30.2953 94.1509 32.1852C92.3116 34.0751 89.8848 35.0185 86.8722 35.0185C83.8597 35.0185 81.5774 34.1025 79.8552 32.2721C78.1314 30.4418 77.2695 28.0302 77.2695 25.0376C77.2695 22.0449 78.0945 19.7493 79.746 17.7145C81.3976 15.6813 83.8597 14.6639 87.1339 14.6639C90.4081 14.6639 92.8541 15.6732 94.4783 17.6936C96.0994 19.7123 96.9115 22.1029 96.9115 24.8621H96.9099ZM92.9119 24.7317C92.9119 22.5826 92.3838 20.8826 91.3261 19.6318C90.2684 18.3826 88.8416 17.758 87.0456 17.758C85.1613 17.758 83.7216 18.4196 82.7217 19.7413C81.7218 21.0629 81.2226 22.7549 81.2226 24.8186C81.2226 26.8824 81.7074 28.4729 82.6784 29.8526C83.6478 31.2338 85.0907 31.9228 87.0023 31.9228C88.9138 31.9228 90.3407 31.2483 91.3695 29.896C92.3983 28.5438 92.9119 26.8229 92.9119 24.7301V24.7317Z" fill="white"/>
<path d="M121.808 34.5822H114.899V30.7476C114.29 31.9099 113.443 32.9128 112.356 33.7548C111.27 34.5967 109.828 35.0185 108.032 35.0185C105.513 35.0185 103.498 34.154 101.993 32.4251C100.486 30.6961 99.7329 28.3216 99.7329 25.2984C99.7329 22.6261 100.421 20.192 101.797 17.9978C103.172 15.8036 105.395 14.7073 108.467 14.7073C111.539 14.7073 113.595 15.8696 114.899 18.1942V7.60319H110.422V4.59604H118.678V31.6185H121.806V34.5822H121.808ZM114.899 25.6042V23.2507C114.841 21.6231 114.29 20.316 113.247 19.3291C112.204 18.3423 110.944 17.8465 109.466 17.8465C107.581 17.8465 106.156 18.5436 105.185 19.9377C104.214 21.3318 103.729 23.0478 103.729 25.081C103.729 27.2897 104.251 28.9752 105.294 30.1375C106.337 31.2998 107.625 31.8809 109.162 31.8809C110.814 31.8809 112.167 31.1984 113.225 29.8332C114.282 28.4681 114.839 27.0579 114.897 25.6058L114.899 25.6042Z" fill="white"/>
<path d="M141.667 28.8287C141.465 30.5142 140.638 31.9679 139.191 33.1865C137.741 34.4067 135.772 35.0169 133.281 35.0169C130.471 35.0169 128.196 34.1749 126.458 32.4895C124.72 30.8056 123.852 28.3635 123.852 25.168C123.852 22.1463 124.662 19.6479 126.285 17.671C127.907 15.6958 130.153 14.7073 133.021 14.7073C135.685 14.7073 137.757 15.5348 139.234 17.1913C140.712 18.8478 141.465 20.852 141.494 23.2056C141.494 23.9896 141.407 24.8186 141.234 25.6896H127.85C128.023 29.8155 129.92 31.8793 133.543 31.8793C135.048 31.8793 136.186 31.5171 136.953 30.7895C137.72 30.0634 138.236 29.1925 138.496 28.1751L141.667 28.8287ZM137.539 23.1187C137.655 21.8405 137.343 20.6122 136.605 19.4354C135.867 18.2586 134.642 17.671 132.933 17.671C131.339 17.671 130.145 18.2023 129.347 19.2615C128.549 20.3224 128.065 21.6087 127.891 23.1187H137.537H137.539Z" fill="white"/>
<path d="M165.002 24.3824C165.002 27.0273 164.307 29.4598 162.916 31.6829C161.526 33.9061 159.309 35.0169 156.268 35.0169C153.226 35.0169 150.894 33.8256 149.62 31.4431C149.591 31.6765 149.525 32.1981 149.424 33.0126C149.323 33.8256 149.257 34.3488 149.228 34.5822H145.405C145.55 33.6823 145.694 32.7374 145.84 31.7489C145.985 30.7621 146.057 29.7882 146.057 28.8287V7.60319H142.929V4.59604H149.882V19.0217C150.461 17.8594 151.278 16.85 152.337 15.992C153.395 15.1356 154.849 14.7057 156.704 14.7057C159.109 14.7057 161.092 15.5493 162.657 17.2332C164.222 18.9186 165.004 21.3012 165.004 24.3808L165.002 24.3824ZM161.004 24.6882C161.004 22.4506 160.489 20.7506 159.462 19.5883C158.433 18.426 157.151 17.8449 155.616 17.8449C153.849 17.8449 152.458 18.4985 151.445 19.8057C150.43 21.1128 149.909 22.4796 149.88 23.9027V26.0807C149.88 27.7083 150.402 29.0815 151.445 30.2003C152.488 31.3191 153.806 31.8777 155.4 31.8777C157.282 31.8777 158.687 31.1807 159.614 29.785C160.54 28.3908 161.004 26.6909 161.004 24.685V24.6882Z" fill="white"/>
<path d="M179.166 14.7943C180.527 14.7943 181.686 15.1436 182.643 15.8407L183.424 21.2883L180.426 21.6376L179.688 18.2812C179.195 18.0783 178.688 17.9769 178.166 17.9769C177.181 17.9769 176.356 18.3906 175.69 19.2181C175.022 20.0455 174.69 21.1289 174.69 22.4651V31.6185H178.861V34.5822H167.737V31.6185H170.865V18.1073H167.607V15.1001H174.43V18.674C174.805 17.5696 175.393 16.6472 176.189 15.9067C176.985 15.1661 177.977 14.7959 179.165 14.7959L179.166 14.7943Z" fill="white"/>
<path d="M205.978 24.8621C205.978 27.8548 205.058 30.2953 203.219 32.1852C201.379 34.0751 198.953 35.0185 195.94 35.0185C192.928 35.0185 190.645 34.1025 188.923 32.2721C187.199 30.4418 186.337 28.0302 186.337 25.0376C186.337 22.0449 187.162 19.7493 188.814 17.7145C190.465 15.6813 192.928 14.6639 196.202 14.6639C199.476 14.6639 201.922 15.6732 203.546 17.6936C205.167 19.7123 205.979 22.1029 205.979 24.8621H205.978ZM201.98 24.7317C201.98 22.5826 201.452 20.8826 200.394 19.6318C199.336 18.3826 197.909 17.758 196.113 17.758C194.229 17.758 192.789 18.4196 191.79 19.7413C190.79 21.0629 190.291 22.7549 190.291 24.8186C190.291 26.8824 190.775 28.4729 191.746 29.8526C192.716 31.2338 194.159 31.9228 196.07 31.9228C197.982 31.9228 199.409 31.2483 200.437 29.896C201.466 28.5438 201.98 26.8229 201.98 24.7301V24.7317Z" fill="white"/>
<path d="M231.397 34.5822H224.315V31.0954C222.982 33.7097 220.795 35.0169 217.753 35.0169C215.869 35.0169 214.269 34.4357 212.951 33.2735C211.632 32.1112 210.974 30.2808 210.974 27.7823V18.1057H207.846V15.0985H214.799V26.517C214.799 28.4939 215.182 29.888 215.949 30.701C216.717 31.5155 217.753 31.9212 219.057 31.9212C220.621 31.9212 221.881 31.3481 222.838 30.2003C223.795 29.0525 224.286 27.7807 224.316 26.3866V18.1057H220.535V15.0985H228.139V31.6169H231.399V34.5806L231.397 34.5822Z" fill="white"/>
<path d="M264.249 18.1073H262.162L256.556 34.5822H253.688L248.038 20.6782H247.822L242.347 34.5822H239.609L233.829 18.1073H231.831V15.1002H241.304V18.1073H237.914L241.477 29.0042H241.694L247.082 15.1002H249.515L255.338 28.9591H255.599L258.598 18.1057H255.339V15.0985H264.247V18.1057L264.249 18.1073Z" fill="white"/>
<path d="M283.369 28.8287C283.167 30.5142 282.34 31.9679 280.893 33.1865C279.443 34.4067 277.474 35.0169 274.983 35.0169C272.173 35.0169 269.898 34.1749 268.16 32.4895C266.422 30.8056 265.554 28.3635 265.554 25.168C265.554 22.1463 266.364 19.6479 267.987 17.671C269.61 15.6958 271.855 14.7073 274.723 14.7073C277.387 14.7073 279.459 15.5348 280.936 17.1913C282.414 18.8478 283.167 20.852 283.196 23.2056C283.196 23.9896 283.109 24.8186 282.936 25.6896H269.552C269.725 29.8155 271.622 31.8793 275.245 31.8793C276.75 31.8793 277.888 31.5171 278.655 30.7895C279.423 30.0634 279.938 29.1925 280.198 28.1751L283.369 28.8287ZM279.241 23.1187C279.357 21.8405 279.045 20.6122 278.307 19.4354C277.569 18.2586 276.344 17.671 274.635 17.671C273.041 17.671 271.847 18.2023 271.049 19.2615C270.252 20.3224 269.767 21.6087 269.593 23.1187H279.24H279.241Z" fill="white"/>
<path d="M297.448 14.7943C298.809 14.7943 299.968 15.1436 300.925 15.8407L301.706 21.2883L298.708 21.6376L297.97 18.2812C297.477 18.0783 296.97 17.9769 296.448 17.9769C295.463 17.9769 294.638 18.3906 293.972 19.2181C293.304 20.0455 292.972 21.1289 292.972 22.4651V31.6185H297.143V34.5822H286.019V31.6185H289.147V18.1073H285.889V15.1001H292.712V18.674C293.088 17.5696 293.675 16.6472 294.471 15.9067C295.267 15.1661 296.259 14.7959 297.447 14.7959L297.448 14.7943Z" fill="white"/>
<path d="M321 28.8722C321 30.8201 320.196 32.3301 318.588 33.4054C316.981 34.4808 314.944 35.0185 312.482 35.0185C309.499 35.0185 306.963 34.3794 304.878 33.1012L305.486 28.3941L308.484 28.6999L308.398 31.2273C308.977 31.5187 309.606 31.7216 310.287 31.8375C310.967 31.9534 311.641 32.0113 312.307 32.0113C313.553 32.0113 314.676 31.7779 315.675 31.3143C316.675 30.849 317.174 30.123 317.174 29.1346C317.174 28.1461 316.768 27.5006 315.957 27.1078C315.145 26.715 314.139 26.4172 312.937 26.2144C311.734 26.0115 310.539 25.7572 309.351 25.4513C308.163 25.1454 307.163 24.6239 306.353 23.8817C305.542 23.1412 305.136 22.0159 305.136 20.5043C305.136 18.3246 305.94 16.8146 307.549 15.971C309.157 15.1291 310.873 14.7073 312.699 14.7073C314.031 14.7073 315.285 14.8748 316.458 15.208C317.631 15.5428 318.695 15.971 319.652 16.4942L320.087 21.2014L317.045 21.5507L316.61 18.5001C315.423 17.9479 314.177 17.6726 312.874 17.6726C311.802 17.6726 310.919 17.8755 310.224 18.2828C309.529 18.69 309.181 19.3581 309.181 20.287C309.181 21.2159 309.579 21.8276 310.377 22.2043C311.173 22.5826 312.158 22.8659 313.331 23.0543C314.505 23.2426 315.678 23.497 316.851 23.8173C318.024 24.1377 319.008 24.6754 319.806 25.4304C320.602 26.187 321.002 27.3332 321.002 28.8738L321 28.8722Z" fill="white"/>
</g>
<defs>
<clipPath id="clip0_67_9">
<rect width="321" height="43" fill="white"/>
</clipPath>
</defs>
</svg>
