<svg width="237" height="268" viewBox="0 0 237 268" fill="none" xmlns="http://www.w3.org/2000/svg">
<path d="M236.43 93.8101H211.97C211.97 100.83 210.79 107.57 208.62 113.85C203.23 115.4 197.53 116.24 191.65 116.24C160.62 116.24 134.97 93.1301 131.01 63.1801H130.07H106.39H105.45C101.49 93.1301 75.84 116.24 44.81 116.24C38.92 116.24 33.23 115.4 27.83 113.85C25.65 107.57 24.48 100.83 24.48 93.8101H0C0 94.8101 0.01 95.8001 0.05 96.7901C0.5 109.87 3.88 122.19 9.55 133.14C9.58 133.15 9.61 133.16 9.64 133.18C10.84 133.72 12.06 134.23 13.3 134.72C13.46 134.79 13.62 134.85 13.79 134.92C14.93 135.36 16.08 135.77 17.24 136.17C17.59 136.29 17.94 136.41 18.29 136.52C18.36 136.54 18.43 136.57 18.51 136.59C18.51 136.59 18.51 136.59 18.52 136.59C11.55 154.11 10.75 172.93 15.41 190.29C18 199.98 22.28 209.23 28.13 217.53C38.26 218.23 48.39 217.13 58.01 214.33C62.55 213.02 66.97 211.31 71.24 209.27C74.87 224.77 82.68 238.65 93.45 249.64C100.47 256.81 108.74 262.75 117.91 267.11C127.08 262.74 135.36 256.81 142.36 249.64C153.14 238.65 160.95 224.77 164.57 209.27C168.84 211.31 173.26 213.02 177.8 214.33C187.42 217.13 197.55 218.23 207.68 217.53C213.53 209.23 217.81 199.98 220.4 190.29C225.04 172.99 224.26 154.23 217.35 136.76C217.35 136.76 217.35 136.76 217.37 136.76C217.48 136.72 217.59 136.69 217.71 136.65C218.23 136.48 218.76 136.31 219.28 136.14C220.37 135.77 221.44 135.38 222.51 134.97C222.76 134.87 223 134.77 223.25 134.67C224.45 134.19 225.65 133.69 226.83 133.16C226.84 133.16 226.86 133.15 226.87 133.14C232.55 122.19 235.92 109.87 236.37 96.7901C236.41 95.8001 236.42 94.8101 236.42 93.8101H236.43ZM42.1 192.73C35.02 176.54 35.02 157.5 43.48 140.68C43.85 140.7 44.21 140.7 44.58 140.7C44.65 140.7 44.72 140.7 44.79 140.7C45.31 140.7 45.81 140.7 46.33 140.69C54.9 140.53 63.16 139.12 70.95 136.63C70.95 136.63 70.96 136.63 70.97 136.63C73.41 147.76 78.01 158.07 84.31 167.11C74.2 181.6 58.7 190.56 42.1 192.73ZM93.85 125.27C103.69 118.38 112 109.49 118.21 99.1701C124.29 109.29 132.41 118.04 142.01 124.86C140.14 142.13 131.11 157.26 117.91 167.17C104.82 157.33 95.82 142.37 93.86 125.27H93.85ZM117.9 238.64C104.07 228.24 94.8 212.12 93.58 193.79C96.32 191.15 98.91 188.3 101.32 185.26C106.41 189.32 111.97 192.81 117.91 195.64C123.85 192.81 129.4 189.32 134.49 185.27C136.9 188.31 139.48 191.16 142.23 193.8C141.02 212.13 131.74 228.26 117.9 238.65V238.64ZM193.71 192.73C177.11 190.56 161.61 181.6 151.5 167.11C157.84 158.01 162.46 147.64 164.88 136.44H164.9C172.85 139.05 181.3 140.54 190.08 140.69C190.6 140.7 191.1 140.7 191.62 140.7C191.68 140.7 191.74 140.7 191.8 140.7C191.98 140.7 192.15 140.7 192.33 140.7C200.79 157.51 200.78 176.55 193.71 192.73Z"/>
<path d="M53.03 53.03H77.43C93.83 53.03 108.49 45.58 118.22 33.89C127.93 45.58 142.6 53.03 159 53.03H183.41C199.17 53.03 211.96 65.8 211.96 81.58H236.44C236.44 52.29 212.7 28.56 183.42 28.56H159.02C151.13 28.56 144 25.36 138.83 20.2C133.64 15.02 130.45 7.88 130.45 0H105.97C105.97 15.76 93.19 28.55 77.42 28.55H53.02C38.37 28.55 25.12 34.48 15.53 44.08C5.93 53.67 0 66.93 0 81.57H24.46C24.46 65.8 37.24 53.02 53.02 53.02L53.03 53.03Z"/>
</svg>
