<svg width="30" height="36" viewBox="0 0 30 36" fill="none" xmlns="http://www.w3.org/2000/svg">
<path d="M13.4728 18.027L1.254 5.80821C0.409471 4.96368 0.409471 3.59806 1.254 2.76251L3.28447 0.73204C4.129 -0.112492 5.49463 -0.112492 6.33017 0.73204L15.0001 9.38399L23.661 0.723056C24.5056 -0.121472 25.8712 -0.121473 26.7067 0.723056L28.7462 2.75352C29.5907 3.59806 29.5907 4.96368 28.7462 5.79923L16.5274 18.018C15.6829 18.8715 14.3173 18.8715 13.4728 18.027ZM16.5274 35.277L28.7462 23.0582C29.5907 22.2137 29.5907 20.8481 28.7462 20.0125L26.7157 17.982C25.8712 17.1375 24.5056 17.1375 23.67 17.982L15.0001 26.634L6.33916 17.9731C5.49463 17.1285 4.129 17.1285 3.29346 17.9731L1.254 20.0035C0.409472 20.8481 0.409472 22.2137 1.254 23.0492L13.4728 35.268C14.3173 36.1215 15.6829 36.1215 16.5274 35.277Z" fill="white"/>
</svg>
